<svg width="800" height="800" viewBox="0 0 800 800" fill="none" xmlns="http://www.w3.org/2000/svg">
<path d="M800 0H0V800H800V0Z" fill="#DB00FF"/>
<path d="M386.932 308H517L448.214 400L517 492H386.932C386.932 492 306.265 492 305.014 400C303.763 308 386.932 308 386.932 308Z" stroke="white" stroke-width="10"/>
<path d="M555.089 435.379H477M555.089 365.621H477H555.089ZM572 333H493.911H572ZM572 468H493.911H572Z" stroke="white" stroke-width="10"/>
<path d="M555.089 435.379H477M555.089 365.621H477H555.089ZM572 333H493.911H572ZM572 468H493.911H572Z" stroke="white" stroke-width="10"/>
<path d="M555 435.379H476.5M306.5 396.234H228H306.5ZM572 333H493.5H572ZM572 468H493.5H572Z" stroke="white" stroke-width="10"/>
</svg>
