<svg width="800" height="800" viewBox="0 0 800 800" fill="none" xmlns="http://www.w3.org/2000/svg">
<rect width="800" height="800" fill="#DB00FF"/>
<path d="M424.682 308H294L363.11 400L294 492H424.682C424.682 492 505.729 492 506.986 400C508.243 308 424.682 308 424.682 308Z" stroke="white" stroke-width="10"/>
<path d="M256 365.5H334.5M239 333H317.5M239 467.5H317.5M256 435H334.5" stroke="white" stroke-width="10"/>
<path d="M256 365.5H334.5M239 333H317.5M239 467.5H317.5M256 435H334.5" stroke="white" stroke-width="10"/>
<path d="M504.5 396H583M239 333H317.5M239 467.5H317.5M256 435H334.5" stroke="white" stroke-width="10"/>
</svg>
