<svg width="800" height="800" viewBox="0 0 800 800" fill="none" xmlns="http://www.w3.org/2000/svg">
<rect width="800" height="800" fill="#DB00FF"/>
<path d="M352.11 400L283 492H312L386.5 400L312 308H283L352.11 400Z" fill="white"/>
<path d="M312 308H283L352.11 400L283 492H312M312 308H413.682C413.682 308 497.243 308 495.986 400C494.729 492 413.682 492 413.682 492H312M312 308L386.5 400L312 492" stroke="white" stroke-width="10"/>
<path d="M228 333H306.5M228 467.5H306.5" stroke="white" stroke-width="10"/>
<path d="M493.5 396H572M228 333H306.5M228 467.5H306.5" stroke="white" stroke-width="10"/>
</svg>
